<svg width="413" height="276" viewBox="0 0 413 276" fill="none" xmlns="http://www.w3.org/2000/svg">
<path d="M125.145 71.1182C131.377 71.0469 137.005 74.8377 139.281 80.6406L151.766 112.477C154.019 118.221 159.559 122 165.729 122H197.526C201.654 122 205.282 124.737 206.416 128.706C207.108 131.13 206.781 133.731 205.51 135.908L171.842 193.563C169.153 198.168 164.221 201 158.889 201H63C54.7157 201 48 194.284 48 186V86.8291C48.0002 78.6121 54.6116 71.9242 62.8281 71.8301L125.145 71.1182ZM143 144C134.163 144 127 151.163 127 160C127 168.837 134.163 176 143 176C151.837 176 159 168.837 159 160C159 151.163 151.837 144 143 144ZM95 93C86.7157 93 80 99.7157 80 108C80 116.284 86.7157 123 95 123C103.284 123 110 116.284 110 108C110 99.7157 103.284 93 95 93Z" fill="#C9523A"/>
<path d="M189.76 201L206.92 172.2H211.76L195.28 201H189.76ZM211.72 201L208.36 172.2H212.84L216.84 201H211.72ZM197.8 189.68H213.6L212.64 193.84H196.84L197.8 189.68ZM219.75 201L226.39 172.2H238.39C240.15 172.2 241.67 172.533 242.95 173.2C244.257 173.84 245.243 174.747 245.91 175.92C246.603 177.067 246.937 178.4 246.91 179.92C246.883 181.653 246.39 183.2 245.43 184.56C244.497 185.92 243.217 186.987 241.59 187.76C239.99 188.507 238.123 188.88 235.99 188.88H226.59L227.51 184.92H236.47C237.51 184.92 238.43 184.72 239.23 184.32C240.057 183.893 240.697 183.32 241.15 182.6C241.63 181.853 241.87 181.013 241.87 180.08C241.897 178.933 241.537 178.027 240.79 177.36C240.07 176.667 239.003 176.32 237.59 176.32H230.67L224.95 201H219.75ZM236.83 201L227.39 186.28H232.63L243.43 201H236.83ZM260.323 201.4C258.029 201.4 255.976 200.867 254.163 199.8C252.349 198.707 250.923 197.2 249.883 195.28C248.843 193.333 248.323 191.107 248.323 188.6C248.323 186.28 248.749 184.107 249.603 182.08C250.456 180.053 251.629 178.267 253.123 176.72C254.616 175.173 256.336 173.96 258.283 173.08C260.256 172.2 262.376 171.76 264.643 171.76C267.149 171.76 269.336 172.307 271.203 173.4C273.096 174.467 274.563 175.96 275.603 177.88C276.643 179.773 277.163 181.987 277.163 184.52C277.163 186.307 276.869 188.027 276.283 189.68C275.696 191.307 274.856 192.787 273.763 194.12C272.696 195.427 271.416 196.507 269.923 197.36C268.456 198.213 266.843 198.773 265.083 199.04L260.323 201.4ZM261.083 197.16C262.549 197.16 263.936 196.84 265.243 196.2C266.549 195.533 267.696 194.627 268.683 193.48C269.696 192.333 270.483 191 271.043 189.48C271.603 187.96 271.883 186.347 271.883 184.64C271.883 182.907 271.563 181.4 270.923 180.12C270.309 178.813 269.429 177.8 268.283 177.08C267.163 176.36 265.816 176 264.243 176C262.776 176 261.403 176.32 260.123 176.96C258.843 177.6 257.709 178.493 256.723 179.64C255.763 180.787 255.003 182.107 254.443 183.6C253.909 185.093 253.643 186.72 253.643 188.48C253.643 190.24 253.936 191.773 254.523 193.08C255.136 194.36 256.003 195.36 257.123 196.08C258.269 196.8 259.589 197.16 261.083 197.16ZM260.323 201.4L260.363 197.8L276.083 196.88L275.163 201C273.483 201 272.003 201.013 270.723 201.04C269.469 201.093 268.309 201.147 267.243 201.2C266.176 201.253 265.096 201.293 264.003 201.32C262.909 201.373 261.683 201.4 260.323 201.4ZM277.959 201L279.319 195.24H285.079L283.719 201H277.959Z" fill="#C9523A"/>
</svg>
